<mxfile host="app.diagrams.net" modified="2022-02-10T11:28:39.604Z" agent="5.0 (Windows NT 10.0; Win64; x64) AppleWebKit/537.36 (KHTML, like Gecko) Chrome/98.0.4758.82 Safari/537.36" etag="k9IcK_Yk7Qq7o7UnXKaa" version="16.5.5" type="github">
  <diagram id="1dYNKg-0c9NFS9p8_zLA" name="Page-1">
    <mxGraphModel dx="768" dy="467" grid="1" gridSize="10" guides="1" tooltips="1" connect="1" arrows="1" fold="1" page="1" pageScale="1" pageWidth="827" pageHeight="1169" math="0" shadow="0">
      <root>
        <mxCell id="0" />
        <mxCell id="1" parent="0" />
        <mxCell id="HqsBoaqwo4W7X47mig_Q-12" style="edgeStyle=orthogonalEdgeStyle;rounded=0;orthogonalLoop=1;jettySize=auto;html=1;entryX=0;entryY=0.5;entryDx=0;entryDy=0;" parent="1" target="HqsBoaqwo4W7X47mig_Q-4" edge="1">
          <mxGeometry relative="1" as="geometry">
            <mxPoint x="170" y="280" as="sourcePoint" />
            <Array as="points">
              <mxPoint x="250" y="280" />
              <mxPoint x="250" y="280" />
            </Array>
          </mxGeometry>
        </mxCell>
        <mxCell id="HqsBoaqwo4W7X47mig_Q-3" value="Individual" style="shape=umlActor;verticalLabelPosition=bottom;verticalAlign=top;html=1;" parent="1" vertex="1">
          <mxGeometry x="120" y="255" width="30" height="60" as="geometry" />
        </mxCell>
        <mxCell id="HqsBoaqwo4W7X47mig_Q-11" style="edgeStyle=orthogonalEdgeStyle;rounded=0;orthogonalLoop=1;jettySize=auto;html=1;exitX=1;exitY=0.5;exitDx=0;exitDy=0;" parent="1" source="HqsBoaqwo4W7X47mig_Q-4" target="HqsBoaqwo4W7X47mig_Q-7" edge="1">
          <mxGeometry relative="1" as="geometry" />
        </mxCell>
        <mxCell id="HqsBoaqwo4W7X47mig_Q-4" value="Authentication/KYC &lt;br&gt;Partner" style="html=1;" parent="1" vertex="1">
          <mxGeometry x="275" y="255" width="115" height="50" as="geometry" />
        </mxCell>
        <mxCell id="HqsBoaqwo4W7X47mig_Q-14" style="edgeStyle=orthogonalEdgeStyle;rounded=0;orthogonalLoop=1;jettySize=auto;html=1;exitX=0.5;exitY=1;exitDx=0;exitDy=0;" parent="1" source="HqsBoaqwo4W7X47mig_Q-7" target="HqsBoaqwo4W7X47mig_Q-13" edge="1">
          <mxGeometry relative="1" as="geometry" />
        </mxCell>
        <mxCell id="HqsBoaqwo4W7X47mig_Q-17" style="edgeStyle=orthogonalEdgeStyle;rounded=0;orthogonalLoop=1;jettySize=auto;html=1;exitX=1;exitY=0.5;exitDx=0;exitDy=0;entryX=0;entryY=0.5;entryDx=0;entryDy=0;" parent="1" source="HqsBoaqwo4W7X47mig_Q-7" target="HqsBoaqwo4W7X47mig_Q-15" edge="1">
          <mxGeometry relative="1" as="geometry" />
        </mxCell>
        <mxCell id="HqsBoaqwo4W7X47mig_Q-28" style="edgeStyle=orthogonalEdgeStyle;rounded=0;orthogonalLoop=1;jettySize=auto;html=1;exitX=0;exitY=0.75;exitDx=0;exitDy=0;entryX=1;entryY=0.75;entryDx=0;entryDy=0;startArrow=none;" parent="1" source="fmAicMVyh8D6lssBpDnl-3" target="HqsBoaqwo4W7X47mig_Q-4" edge="1">
          <mxGeometry relative="1" as="geometry">
            <Array as="points">
              <mxPoint x="490" y="293" />
              <mxPoint x="440" y="293" />
            </Array>
          </mxGeometry>
        </mxCell>
        <mxCell id="HqsBoaqwo4W7X47mig_Q-7" value="ID Authentication" style="html=1;" parent="1" vertex="1">
          <mxGeometry x="520" y="255" width="110" height="50" as="geometry" />
        </mxCell>
        <mxCell id="HqsBoaqwo4W7X47mig_Q-13" value="IDA DB" style="shape=cylinder3;whiteSpace=wrap;html=1;boundedLbl=1;backgroundOutline=1;size=15;" parent="1" vertex="1">
          <mxGeometry x="705" y="380" width="60" height="80" as="geometry" />
        </mxCell>
        <mxCell id="HqsBoaqwo4W7X47mig_Q-15" value="OTP Generator&lt;br&gt;Service" style="html=1;" parent="1" vertex="1">
          <mxGeometry x="680" y="255" width="110" height="50" as="geometry" />
        </mxCell>
        <mxCell id="HqsBoaqwo4W7X47mig_Q-22" style="edgeStyle=orthogonalEdgeStyle;rounded=0;orthogonalLoop=1;jettySize=auto;html=1;exitX=0;exitY=0.5;exitDx=0;exitDy=0;" parent="1" source="HqsBoaqwo4W7X47mig_Q-20" edge="1">
          <mxGeometry relative="1" as="geometry">
            <mxPoint x="165" y="310" as="targetPoint" />
            <Array as="points">
              <mxPoint x="180" y="419" />
              <mxPoint x="180" y="310" />
            </Array>
          </mxGeometry>
        </mxCell>
        <mxCell id="HqsBoaqwo4W7X47mig_Q-20" value="Notification&lt;br&gt;Service" style="html=1;" parent="1" vertex="1">
          <mxGeometry x="525" y="394" width="110" height="50" as="geometry" />
        </mxCell>
        <mxCell id="HqsBoaqwo4W7X47mig_Q-23" value="UIN/VID" style="text;html=1;strokeColor=none;fillColor=none;align=center;verticalAlign=middle;whiteSpace=wrap;rounded=0;" parent="1" vertex="1">
          <mxGeometry x="205" y="250" width="60" height="30" as="geometry" />
        </mxCell>
        <mxCell id="HqsBoaqwo4W7X47mig_Q-24" value="OTP Request" style="text;html=1;strokeColor=none;fillColor=none;align=center;verticalAlign=middle;whiteSpace=wrap;rounded=0;" parent="1" vertex="1">
          <mxGeometry x="205" y="290" width="60" height="30" as="geometry" />
        </mxCell>
        <mxCell id="HqsBoaqwo4W7X47mig_Q-25" value="OTP Request" style="text;html=1;strokeColor=none;fillColor=none;align=center;verticalAlign=middle;whiteSpace=wrap;rounded=0;" parent="1" vertex="1">
          <mxGeometry x="390" y="230" width="60" height="30" as="geometry" />
        </mxCell>
        <mxCell id="HqsBoaqwo4W7X47mig_Q-26" value="OTP Request&amp;nbsp;Status" style="text;html=1;strokeColor=none;fillColor=none;align=center;verticalAlign=middle;whiteSpace=wrap;rounded=0;" parent="1" vertex="1">
          <mxGeometry x="398" y="305" width="60" height="30" as="geometry" />
        </mxCell>
        <mxCell id="fmAicMVyh8D6lssBpDnl-3" value="" style="rounded=0;whiteSpace=wrap;html=1;" parent="1" vertex="1">
          <mxGeometry x="473" y="240" width="10" height="90" as="geometry" />
        </mxCell>
        <mxCell id="fmAicMVyh8D6lssBpDnl-8" value="" style="edgeStyle=orthogonalEdgeStyle;rounded=0;orthogonalLoop=1;jettySize=auto;html=1;exitX=0;exitY=0.75;exitDx=0;exitDy=0;entryX=1;entryY=0.75;entryDx=0;entryDy=0;endArrow=none;" parent="1" source="HqsBoaqwo4W7X47mig_Q-7" target="fmAicMVyh8D6lssBpDnl-3" edge="1">
          <mxGeometry relative="1" as="geometry">
            <mxPoint x="520" y="292.5" as="sourcePoint" />
            <mxPoint x="390" y="292.5" as="targetPoint" />
          </mxGeometry>
        </mxCell>
        <mxCell id="fmAicMVyh8D6lssBpDnl-9" value="MISP" style="text;html=1;strokeColor=none;fillColor=none;align=center;verticalAlign=middle;whiteSpace=wrap;rounded=0;" parent="1" vertex="1">
          <mxGeometry x="449" y="215" width="60" height="30" as="geometry" />
        </mxCell>
        <mxCell id="fmAicMVyh8D6lssBpDnl-16" value="Store OTP" style="text;html=1;strokeColor=none;fillColor=none;align=center;verticalAlign=middle;whiteSpace=wrap;rounded=0;" parent="1" vertex="1">
          <mxGeometry x="655" y="315" width="95" height="30" as="geometry" />
        </mxCell>
        <mxCell id="fmAicMVyh8D6lssBpDnl-21" value="OTP &lt;br&gt;E-Mail/SMS Notification Request" style="text;html=1;strokeColor=none;fillColor=none;align=center;verticalAlign=middle;whiteSpace=wrap;rounded=0;" parent="1" vertex="1">
          <mxGeometry x="450" y="350" width="83" height="30" as="geometry" />
        </mxCell>
        <mxCell id="fmAicMVyh8D6lssBpDnl-24" value="OTP Email/SMS message" style="text;html=1;strokeColor=none;fillColor=none;align=center;verticalAlign=middle;whiteSpace=wrap;rounded=0;" parent="1" vertex="1">
          <mxGeometry x="240" y="380" width="80" height="30" as="geometry" />
        </mxCell>
        <mxCell id="R2P6aQjRr2qWBfgYaLOW-2" value="" style="endArrow=classic;html=1;rounded=0;entryX=0.136;entryY=0;entryDx=0;entryDy=0;entryPerimeter=0;exitX=0.17;exitY=0.98;exitDx=0;exitDy=0;exitPerimeter=0;" edge="1" parent="1" source="HqsBoaqwo4W7X47mig_Q-7" target="HqsBoaqwo4W7X47mig_Q-20">
          <mxGeometry width="50" height="50" relative="1" as="geometry">
            <mxPoint x="470" y="270" as="sourcePoint" />
            <mxPoint x="520" y="220" as="targetPoint" />
          </mxGeometry>
        </mxCell>
      </root>
    </mxGraphModel>
  </diagram>
</mxfile>
